<svg width="256" height="44" viewBox="0 0 256 44" fill="none" xmlns="http://www.w3.org/2000/svg">
<path d="M33.0174 41.404C32.1708 41.404 31.5286 41.14 31.0907 40.612C30.682 40.084 30.4776 39.3653 30.4776 38.456C30.4776 37.7227 30.5068 37.092 30.5652 36.564C30.6236 36.036 30.7404 35.4787 30.9155 34.892C31.0907 34.276 31.3096 33.528 31.5724 32.648C31.8643 31.7387 32.2292 30.58 32.6671 29.172C32.9299 28.3507 33.251 27.28 33.6305 25.96C34.0392 24.6107 34.4479 23.144 34.8566 21.56C35.2653 19.9467 35.601 18.3333 35.8638 16.72C36.1557 15.0773 36.3017 13.5667 36.3017 12.188C36.3017 11.2493 36.0973 10.384 35.6886 9.592C32.9737 12.2907 30.4047 15.8107 27.9816 20.152C25.5878 24.4933 23.4567 29.5387 21.5883 35.288C21.0337 36.7253 20.3914 37.6933 19.6616 38.192C18.9318 38.6613 18.2311 38.896 17.5597 38.896C17.3553 38.896 17.0488 38.7787 16.6401 38.544C16.2314 38.28 15.8519 37.8107 15.5016 37.136C15.1512 36.4613 14.9761 35.508 14.9761 34.276C14.9761 33.9827 15.0491 33.616 15.195 33.176C15.341 32.7067 15.5599 32.208 15.8519 31.68C16.1146 30.1547 16.3044 28.5267 16.4211 26.796C16.5671 25.036 16.6547 23.2907 16.6839 21.56C16.7423 19.8 16.7715 18.1573 16.7715 16.632C16.7715 15.4587 16.6839 14.432 16.5087 13.552C15.0783 15.3707 13.7208 17.5707 12.4363 20.152C11.1518 22.7333 9.98405 25.476 8.9331 28.38C7.91134 31.284 7.06474 34.1293 6.3933 36.916C6.21814 37.5907 6.01379 38.2213 5.78024 38.808C5.5467 39.3653 5.19638 39.82 4.72929 40.172C4.29139 40.4947 3.64914 40.656 2.80254 40.656C1.86836 40.656 1.16773 40.2747 0.700635 39.512C0.233545 38.7493 0 37.7373 0 36.476C0 35.508 0.204352 34.2613 0.613056 32.736C1.02176 31.1813 1.57643 29.4947 2.27707 27.676C2.9777 25.828 3.78051 23.9507 4.6855 22.044C5.61968 20.108 6.59765 18.2453 7.61941 16.456C8.64117 14.6667 9.67753 13.068 10.7285 11.66C11.8086 10.2227 12.8304 9.09333 13.7938 8.272C14.7863 7.42133 15.6913 6.996 16.5087 6.996C16.5379 6.996 16.5817 6.996 16.6401 6.996C17.2823 6.996 17.8662 7.05467 18.3917 7.172C18.9463 7.26 19.428 7.568 19.8367 8.096C20.2746 8.59467 20.6542 9.43067 20.9753 10.604C21.2964 11.7773 21.5737 13.4347 21.8073 15.576C21.8657 16.104 21.9095 16.7347 21.9386 17.468C21.9678 18.172 21.9824 18.9053 21.9824 19.668C22.9458 17.4973 23.9968 15.4587 25.1353 13.552C26.303 11.6453 27.4999 9.95867 28.7261 8.492C29.9814 7.02533 31.2221 5.88133 32.4482 5.06C33.6743 4.23867 34.8128 3.828 35.8638 3.828C37.0899 3.828 38.2284 4.136 39.2794 4.752C40.3303 5.33867 41.1769 6.336 41.8192 7.744C42.4614 9.152 42.7826 11.0733 42.7826 13.508C42.7826 16.0893 42.549 18.5973 42.0819 21.032C41.6148 23.4373 41.031 25.7107 40.3303 27.852C39.6297 29.9933 38.9291 31.9587 38.2284 33.748C37.5278 35.508 36.9439 37.0333 36.4768 38.324C36.0973 39.2333 35.6594 39.9813 35.1631 40.568C34.6669 41.1253 33.9516 41.404 33.0174 41.404Z" fill="#0DC7D6"/>
<path d="M51.2264 42.46C50.2923 42.46 49.4457 42.196 48.6866 41.668C47.9276 41.1693 47.3292 40.5093 46.8913 39.688C46.4534 38.8373 46.2344 37.928 46.2344 36.96C46.2344 35.1413 46.6285 33.3667 47.4167 31.636C48.2341 29.9053 49.2997 28.2627 50.6134 26.708C51.9271 25.1533 53.3575 23.7307 54.9048 22.44C56.4812 21.12 58.043 19.9907 59.5903 19.052C61.1667 18.1133 62.5972 17.38 63.8817 16.852C65.1954 16.324 66.2171 16.06 66.9469 16.06C67.7935 16.06 68.4796 16.2507 69.0051 16.632C69.5597 16.984 69.8371 17.5413 69.8371 18.304C69.8371 18.5387 69.7787 18.7293 69.6619 18.876C70.0414 18.964 70.3479 19.184 70.5815 19.536C70.815 19.888 70.9318 20.416 70.9318 21.12C70.9318 21.4133 70.8588 22.176 70.7129 23.408C70.5669 24.64 70.4063 26.136 70.2312 27.896C70.0852 29.656 70.0122 31.4893 70.0122 33.396C70.0122 33.6893 70.056 33.9533 70.1436 34.188C70.2312 34.3933 70.4209 34.496 70.7129 34.496C71.8806 34.496 73.0629 34.2613 74.2598 33.792C75.4859 33.2933 76.6683 32.692 77.8068 31.988C78.9745 31.2547 80.0255 30.536 80.9596 29.832C81.923 29.0987 82.7258 28.4973 83.3681 28.028C84.0395 27.5293 84.4774 27.28 84.6818 27.28C85.6743 27.28 86.1706 27.7787 86.1706 28.776C86.1706 29.04 85.8495 29.5973 85.2073 30.448C84.5942 31.2693 83.7476 32.2227 82.6674 33.308C81.5873 34.364 80.3758 35.42 79.0329 36.476C77.7192 37.5027 76.3471 38.3533 74.9167 39.028C73.5154 39.7027 72.1579 40.04 70.8442 40.04C69.2386 40.04 68.0125 39.6587 67.1659 38.896C66.3485 38.1333 65.7646 37.1067 65.4143 35.816C65.0932 34.496 64.918 33.0147 64.8888 31.372C63.4 33.5133 61.8527 35.42 60.2471 37.092C58.6707 38.7347 57.1089 40.04 55.5616 41.008C54.0144 41.976 52.5693 42.46 51.2264 42.46ZM66.728 20.416C63.8671 21.7947 61.2981 23.3787 59.021 25.168C56.7439 26.928 54.934 28.776 53.5911 30.712C52.2774 32.648 51.6205 34.5107 51.6205 36.3C51.6205 36.7987 51.8541 37.048 52.3212 37.048C52.8759 37.048 53.6057 36.7253 54.5107 36.08C55.4448 35.4347 56.452 34.584 57.5322 33.528C58.6123 32.4427 59.6925 31.24 60.7726 29.92C61.8527 28.5707 62.8599 27.192 63.7941 25.784C64.7283 24.376 65.4727 23.0267 66.0274 21.736C66.2317 21.2667 66.4653 20.8267 66.728 20.416Z" fill="#0DC7D6"/>
<path d="M84.6507 42.724C83.9208 42.724 83.2932 42.46 82.7677 41.932C82.2714 41.404 82.0233 40.6413 82.0233 39.644C82.0233 39.204 82.0816 38.4853 82.1984 37.488C82.3444 36.4613 82.5196 35.288 82.7239 33.968C82.9575 32.648 83.1764 31.2693 83.3807 29.832C83.6143 28.3947 83.804 27.0307 83.95 25.74C84.1252 24.4493 84.2419 23.3493 84.3003 22.44C84.3587 21.3253 84.6506 20.5333 85.1761 20.064C85.7016 19.5653 86.3293 19.316 87.0591 19.316C87.6429 19.316 88.1684 19.4627 88.6355 19.756C89.1318 20.02 89.4383 20.592 89.5551 21.472C89.7011 22.3227 89.7157 23.5547 89.5989 25.168C90.8834 22.8213 92.1825 20.724 93.4962 18.876C94.8391 17.028 96.2403 15.5613 97.7 14.476C100.123 12.628 102.312 11.704 104.268 11.704C105.378 11.704 106.108 11.9533 106.458 12.452C106.808 12.9507 106.983 13.464 106.983 13.992C106.983 14.344 106.896 14.6667 106.721 14.96C106.575 15.2533 106.254 15.5613 105.757 15.884C105.261 16.2067 104.502 16.632 103.48 17.16C102.108 17.864 100.751 18.788 99.4078 19.932C98.0941 21.076 96.7804 22.5427 95.4667 24.332C94.153 26.1213 92.8247 28.3213 91.4818 30.932C90.139 33.5427 88.7523 36.652 87.3218 40.26C87.0591 41.2573 86.6796 41.9173 86.1833 42.24C85.7162 42.5627 85.2053 42.724 84.6507 42.724Z" fill="#0DC7D6"/>
<path d="M129.454 44C127.469 44 125.629 43.5747 123.936 42.724C122.243 41.9027 120.696 40.8173 119.294 39.468C117.893 38.0893 116.638 36.5933 115.529 34.98C114.448 33.3373 113.529 31.724 112.77 30.14C112.419 31.7533 112.098 33.132 111.806 34.276C111.544 35.42 111.325 36.3733 111.15 37.136C111.004 37.7227 110.843 38.2947 110.668 38.852C110.522 39.4093 110.288 39.864 109.967 40.216C109.646 40.568 109.194 40.744 108.61 40.744C107.354 40.744 106.552 40.3187 106.201 39.468C105.851 38.588 105.676 37.4733 105.676 36.124C105.676 34.9213 105.866 33.3373 106.245 31.372C106.654 29.4067 107.194 27.2067 107.865 24.772C108.537 22.3373 109.31 19.8293 110.186 17.248C111.091 14.6373 112.055 12.1 113.076 9.636C114.098 7.14267 115.12 4.884 116.142 2.86C116.784 1.628 117.353 0.850667 117.849 0.528001C118.346 0.176 118.93 0 119.601 0C120.272 0 120.783 0.176 121.134 0.528001C121.484 0.88 121.659 1.34933 121.659 1.936C121.659 2.31733 121.572 2.69867 121.396 3.08C121.221 3.46133 121.031 3.93067 120.827 4.488C120.156 5.984 119.455 7.72933 118.725 9.724C117.995 11.6893 117.295 13.728 116.623 15.84C115.952 17.9227 115.353 19.9027 114.828 21.78C116.258 20.9293 117.849 20.108 119.601 19.316C121.353 18.4947 123.119 17.7613 124.9 17.116C126.71 16.4413 128.403 15.9133 129.979 15.532C131.556 15.1507 132.884 14.96 133.964 14.96C134.811 14.96 135.453 15.2093 135.891 15.708C136.329 16.2067 136.548 16.7493 136.548 17.336C136.548 17.776 136.416 18.216 136.153 18.656C135.891 19.096 135.336 19.4773 134.49 19.8C131.687 20.7387 128.899 21.692 126.126 22.66C123.382 23.628 120.331 24.772 116.974 26.092C117.674 27.4707 118.492 28.8933 119.426 30.36C120.36 31.7973 121.367 33.1467 122.447 34.408C123.527 35.64 124.637 36.652 125.775 37.444C126.914 38.2067 128.038 38.588 129.147 38.588C130.782 38.588 132.358 38.2653 133.876 37.62C135.395 36.9453 136.796 36.1387 138.08 35.2C139.365 34.232 140.489 33.2933 141.452 32.384C142.445 31.4747 143.218 30.7707 143.773 30.272C144.094 29.9493 144.401 29.7147 144.692 29.568C145.014 29.4213 145.408 29.348 145.875 29.348C146.429 29.348 146.853 29.524 147.145 29.876C147.466 30.1987 147.612 30.624 147.583 31.152C147.553 31.6507 147.305 32.1493 146.838 32.648C146.459 33.0587 145.86 33.7187 145.043 34.628C144.255 35.508 143.291 36.4907 142.153 37.576C141.043 38.632 139.803 39.6587 138.431 40.656C137.088 41.624 135.657 42.416 134.139 43.032C132.621 43.6773 131.059 44 129.454 44Z" fill="#0DC7D6"/>
<path d="M173.399 42.372C172.202 42.372 171.298 42.1813 170.684 41.8C170.101 41.448 169.706 41.0373 169.502 40.568C169.327 40.0987 169.239 39.732 169.239 39.468C169.239 38.6173 169.619 37.9133 170.378 37.356C171.166 36.7693 172.042 36.476 173.005 36.476C173.939 36.476 175.093 36.344 176.465 36.08C177.866 35.7867 179.34 35.376 180.887 34.848C182.464 34.32 183.967 33.66 185.398 32.868C186.857 32.076 188.127 31.1667 189.207 30.14C190.288 29.1133 191.032 27.984 191.441 26.752C190.799 26.6347 190.156 26.5467 189.514 26.488C188.872 26.4 188.23 26.356 187.587 26.356C185.427 26.356 183.194 26.5907 180.887 27.06C178.581 27.5293 176.29 27.984 174.012 28.424C173.458 28.5413 172.961 28.4387 172.524 28.116C172.465 28.732 172.407 29.304 172.348 29.832C172.319 30.3307 172.29 30.8733 172.261 31.46C172.202 32.8973 172.071 34.012 171.867 34.804C171.692 35.5667 171.487 36.1093 171.254 36.432C171.02 36.7547 170.772 36.9453 170.509 37.004C170.247 37.0627 169.998 37.092 169.765 37.092C169.677 37.092 169.619 37.092 169.59 37.092C169.064 37.092 168.568 36.96 168.101 36.696C167.634 36.432 167.254 35.8893 166.962 35.068C166.67 34.2173 166.524 32.9413 166.524 31.24C166.524 25.8427 167.108 21.2667 168.276 17.512C169.473 13.728 171.181 10.8533 173.399 8.888C175.647 6.89333 178.333 5.896 181.457 5.896C183.909 5.896 185.821 6.57067 187.193 7.92C188.565 9.24 189.251 11.1467 189.251 13.64C189.251 14.9013 189.003 16.1627 188.507 17.424C188.011 18.6853 187.31 19.932 186.405 21.164C186.96 21.0467 187.5 20.9587 188.025 20.9C188.551 20.812 189.047 20.768 189.514 20.768C192.258 20.768 194.287 21.2667 195.601 22.264C196.914 23.232 197.571 24.5373 197.571 26.18C197.571 27.8227 197.104 29.3627 196.17 30.8C195.265 32.2373 194.054 33.5573 192.536 34.76C191.047 35.9333 189.397 37.004 187.587 37.972C185.777 38.9107 183.967 39.7173 182.157 40.392C180.347 41.0373 178.669 41.5213 177.122 41.844C175.574 42.196 174.334 42.372 173.399 42.372ZM173.049 23.584C173.224 23.496 173.414 23.4373 173.618 23.408C176.246 22.968 178.26 22.3667 179.661 21.604C181.063 20.8413 182.026 19.888 182.551 18.744C183.077 17.6 183.34 16.236 183.34 14.652C183.34 14.2413 183.281 13.8013 183.165 13.332C183.048 12.8627 182.814 12.4667 182.464 12.144C182.143 11.792 181.646 11.616 180.975 11.616C178.756 11.616 177.019 12.628 175.764 14.652C174.538 16.6467 173.633 19.624 173.049 23.584Z" fill="#0DC7D6"/>
<path d="M210.623 42.24C208.551 42.24 206.887 41.5067 205.631 40.04C204.376 38.544 203.748 36.5493 203.748 34.056C203.748 33.264 203.851 32.4573 204.055 31.636C204.288 30.8147 204.566 30.052 204.887 29.348C204.712 29.084 204.566 28.7467 204.449 28.336C204.361 27.896 204.318 27.3827 204.318 26.796C204.318 24.8893 204.653 23.144 205.325 21.56C205.996 19.9467 206.901 18.5533 208.04 17.38C209.178 16.2067 210.434 15.2973 211.806 14.652C213.178 14.0067 214.564 13.684 215.966 13.684C218.36 13.684 220.316 14.4907 221.834 16.104C223.381 17.7173 224.154 20.2253 224.154 23.628C224.154 25.3293 223.892 27.06 223.366 28.82C222.841 30.58 222.125 32.2667 221.22 33.88C220.345 35.464 219.323 36.8867 218.155 38.148C217.017 39.4093 215.791 40.4067 214.477 41.14C213.192 41.8733 211.908 42.24 210.623 42.24ZM209.923 27.368C210.069 27.6907 210.142 28.072 210.142 28.512C210.142 28.952 210.054 29.4067 209.879 29.876C209.704 30.3453 209.529 30.976 209.353 31.768C209.178 32.5307 209.091 33.6307 209.091 35.068C209.091 35.4493 209.135 35.772 209.222 36.036C209.339 36.2707 209.587 36.388 209.967 36.388C210.959 36.388 211.893 36.0653 212.769 35.42C213.674 34.7747 214.477 33.924 215.178 32.868C215.907 31.812 216.52 30.6387 217.017 29.348C217.542 28.028 217.936 26.6933 218.199 25.344C218.491 23.9653 218.637 22.6893 218.637 21.516C218.637 20.7533 218.491 20.2253 218.199 19.932C217.907 19.6387 217.396 19.492 216.666 19.492C215.674 19.492 214.652 19.8147 213.601 20.46C212.579 21.076 211.718 21.9267 211.018 23.012C210.317 24.068 209.967 25.2707 209.967 26.62C209.967 26.884 209.952 27.1333 209.923 27.368Z" fill="#0DC7D6"/>
<path d="M229.484 39.908C228.783 39.908 228.272 39.6733 227.951 39.204C227.63 38.7053 227.499 38.0893 227.557 37.356C227.586 36.9453 227.907 36.3587 228.52 35.596C229.133 34.804 229.936 33.88 230.929 32.824C231.921 31.7387 233.016 30.58 234.213 29.348C235.439 28.0867 236.694 26.8107 237.979 25.52C236.373 23.144 235.162 21.2373 234.344 19.8C233.556 18.3627 233.133 17.2333 233.075 16.412C233.016 15.5027 233.162 14.7693 233.512 14.212C233.892 13.6547 234.49 13.376 235.308 13.376C235.775 13.376 236.257 13.596 236.753 14.036C237.278 14.476 237.935 15.2827 238.723 16.456C239.541 17.6293 240.621 19.2867 241.964 21.428C243.978 19.404 245.628 17.7613 246.912 16.5C248.226 15.2093 249.277 14.212 250.065 13.508C250.882 12.804 251.51 12.32 251.948 12.056C252.415 11.792 252.809 11.66 253.13 11.66C253.831 11.66 254.327 11.9093 254.619 12.408C254.94 12.8773 255.072 13.4933 255.013 14.256C254.955 14.872 254.59 15.62 253.918 16.5C253.276 17.3507 252.444 18.2893 251.422 19.316C250.401 20.3133 249.291 21.3547 248.094 22.44C246.927 23.496 245.788 24.5373 244.679 25.564C246.489 28.1453 248.182 30.404 249.758 32.34C251.364 34.2467 252.663 35.8307 253.656 37.092C254.648 38.324 255.159 39.2333 255.188 39.82C255.247 40.436 255.086 40.92 254.707 41.272C254.356 41.624 253.845 41.8 253.174 41.8C252.794 41.8 252.327 41.668 251.773 41.404C251.218 41.14 250.474 40.5973 249.539 39.776C248.634 38.9547 247.467 37.7227 246.036 36.08C244.635 34.408 242.883 32.164 240.782 29.348C239.585 30.58 238.388 31.812 237.191 33.044C236.023 34.276 234.914 35.42 233.863 36.476C232.841 37.5027 231.936 38.3387 231.148 38.984C230.389 39.6 229.834 39.908 229.484 39.908Z" fill="#0DC7D6"/>
</svg>
