<svg width="123" height="32" viewBox="0 0 123 32" fill="none" xmlns="http://www.w3.org/2000/svg">
<path d="M0 27.9721H0.448889L1.50439 30.5502H1.54078L2.59628 27.9721H3.04517V31.0779H2.69334V28.7182H2.66301L1.69243 31.0779H1.35273L0.382163 28.7182H0.351832V31.0779H0V27.9721Z" fill="#0DC7D6"/>
<path d="M5.24759 31.1325C5.09998 31.1325 4.96603 31.1047 4.84571 31.0491C4.7254 30.9925 4.62986 30.9111 4.55909 30.805C4.48832 30.6978 4.45294 30.5684 4.45294 30.4167C4.45294 30.2833 4.47922 30.1751 4.5318 30.0922C4.58437 30.0083 4.65463 29.9426 4.74259 29.895C4.83055 29.8475 4.92761 29.8121 5.03376 29.7889C5.14093 29.7646 5.2486 29.7454 5.35678 29.7313C5.49832 29.7131 5.61307 29.6994 5.70103 29.6903C5.79 29.6802 5.8547 29.6635 5.89515 29.6403C5.9366 29.617 5.95732 29.5766 5.95732 29.5189V29.5068C5.95732 29.3572 5.91638 29.2409 5.83448 29.158C5.7536 29.0751 5.63077 29.0337 5.46597 29.0337C5.29511 29.0337 5.16115 29.0711 5.06409 29.1459C4.96704 29.2207 4.89879 29.3006 4.85936 29.3855L4.51966 29.2642C4.58032 29.1226 4.6612 29.0124 4.76231 28.9336C4.86442 28.8537 4.97563 28.7981 5.09594 28.7668C5.21726 28.7344 5.33656 28.7182 5.45384 28.7182C5.52865 28.7182 5.61459 28.7273 5.71165 28.7455C5.80971 28.7627 5.90424 28.7986 5.99524 28.8532C6.08724 28.9078 6.16357 28.9902 6.22423 29.1004C6.28489 29.2106 6.31522 29.3582 6.31522 29.5432V31.0779H5.95732V30.7625H5.93912C5.91486 30.813 5.87442 30.8671 5.8178 30.9248C5.76119 30.9824 5.68587 31.0314 5.59184 31.0719C5.49782 31.1123 5.38307 31.1325 5.24759 31.1325ZM5.30219 30.811C5.44373 30.811 5.56303 30.7832 5.66009 30.7276C5.75815 30.672 5.83196 30.6002 5.8815 30.5123C5.93205 30.4243 5.95732 30.3318 5.95732 30.2347V29.9072C5.94216 29.9254 5.90879 29.9421 5.85723 29.9572C5.80668 29.9714 5.74804 29.984 5.68132 29.9951C5.6156 30.0052 5.5514 30.0143 5.48872 30.0224C5.42705 30.0295 5.377 30.0356 5.33858 30.0406C5.24557 30.0528 5.15862 30.0725 5.07774 30.0998C4.99787 30.1261 4.93317 30.166 4.88363 30.2196C4.8351 30.2722 4.81083 30.3439 4.81083 30.4349C4.81083 30.5593 4.85684 30.6533 4.94884 30.717C5.04185 30.7797 5.15963 30.811 5.30219 30.811Z" fill="#0DC7D6"/>
<path d="M7.77986 31.0779V28.7486H8.12562V29.1004H8.14989C8.19235 28.9851 8.26919 28.8916 8.3804 28.8198C8.49161 28.7481 8.61698 28.7122 8.7565 28.7122C8.78278 28.7122 8.81564 28.7127 8.85507 28.7137C8.8945 28.7147 8.92432 28.7162 8.94454 28.7182V29.0822C8.93241 29.0792 8.90461 29.0746 8.86114 29.0685C8.81867 29.0615 8.77368 29.0579 8.72617 29.0579C8.61293 29.0579 8.51183 29.0817 8.42286 29.1292C8.3349 29.1757 8.26514 29.2404 8.21358 29.3233C8.16303 29.4052 8.13776 29.4987 8.13776 29.6039V31.0779H7.77986Z" fill="#0DC7D6"/>
<path d="M10.5138 30.2287L10.5078 29.7859H10.5805L11.5996 28.7486H12.0425L10.9566 29.8465H10.9263L10.5138 30.2287ZM10.1802 31.0779V27.9721H10.5381V31.0779H10.1802ZM11.6603 31.0779L10.7504 29.9254L11.0052 29.6767L12.1153 31.0779H11.6603Z" fill="#0DC7D6"/>
<path d="M14.1952 31.1265C13.9708 31.1265 13.7772 31.0769 13.6144 30.9778C13.4526 30.8777 13.3278 30.7382 13.2398 30.5593C13.1529 30.3793 13.1094 30.17 13.1094 29.9314C13.1094 29.6928 13.1529 29.4826 13.2398 29.3006C13.3278 29.1176 13.4501 28.975 13.6068 28.8729C13.7645 28.7698 13.9485 28.7182 14.1588 28.7182C14.2802 28.7182 14.4 28.7384 14.5182 28.7789C14.6365 28.8193 14.7442 28.885 14.8413 28.976C14.9383 29.066 15.0157 29.1853 15.0733 29.3339C15.1309 29.4826 15.1597 29.6655 15.1597 29.8829V30.0346H13.3642V29.7252H14.7958C14.7958 29.5938 14.7695 29.4765 14.7169 29.3734C14.6653 29.2702 14.5915 29.1889 14.4955 29.1292C14.4005 29.0696 14.2882 29.0397 14.1588 29.0397C14.0163 29.0397 13.8929 29.0751 13.7888 29.1459C13.6857 29.2156 13.6063 29.3066 13.5507 29.4189C13.4951 29.5311 13.4673 29.6514 13.4673 29.7798V29.986C13.4673 30.162 13.4976 30.3111 13.5583 30.4334C13.62 30.5547 13.7054 30.6472 13.8146 30.7109C13.9238 30.7736 14.0507 30.805 14.1952 30.805C14.2893 30.805 14.3742 30.7918 14.45 30.7655C14.5268 30.7382 14.5931 30.6978 14.6487 30.6442C14.7043 30.5896 14.7472 30.5219 14.7776 30.441L15.1233 30.538C15.0869 30.6553 15.0258 30.7584 14.9398 30.8474C14.8539 30.9354 14.7477 31.0041 14.6214 31.0537C14.495 31.1022 14.3529 31.1265 14.1952 31.1265Z" fill="#0DC7D6"/>
<path d="M17.5286 28.7486V29.0519H16.3214V28.7486H17.5286ZM16.6733 28.1905H17.0312V30.4107C17.0312 30.5118 17.0458 30.5876 17.0752 30.6381C17.1055 30.6877 17.1439 30.721 17.1904 30.7382C17.2379 30.7544 17.288 30.7625 17.3405 30.7625C17.38 30.7625 17.4123 30.7605 17.4376 30.7564C17.4629 30.7514 17.4831 30.7473 17.4983 30.7443L17.5711 31.0658C17.5468 31.0749 17.5129 31.084 17.4695 31.0931C17.426 31.1032 17.3709 31.1083 17.3042 31.1083C17.2031 31.1083 17.104 31.0865 17.0069 31.043C16.9109 30.9996 16.831 30.9334 16.7673 30.8444C16.7046 30.7554 16.6733 30.6432 16.6733 30.5077V28.1905Z" fill="#0DC7D6"/>
<path d="M18.8784 31.0779V28.7486H19.2363V31.0779H18.8784ZM19.0603 28.3603C18.9906 28.3603 18.9304 28.3366 18.8799 28.2891C18.8303 28.2415 18.8056 28.1844 18.8056 28.1177C18.8056 28.051 18.8303 27.9938 18.8799 27.9463C18.9304 27.8988 18.9906 27.875 19.0603 27.875C19.1301 27.875 19.1897 27.8988 19.2393 27.9463C19.2898 27.9938 19.3151 28.051 19.3151 28.1177C19.3151 28.1844 19.2898 28.2415 19.2393 28.2891C19.1897 28.3366 19.1301 28.3603 19.0603 28.3603Z" fill="#0DC7D6"/>
<path d="M21.0611 29.6767V31.0779H20.7032V28.7486H21.0489V29.1125H21.0793C21.1339 28.9942 21.2168 28.8992 21.328 28.8274C21.4392 28.7546 21.5827 28.7182 21.7587 28.7182C21.9164 28.7182 22.0544 28.7506 22.1727 28.8153C22.291 28.879 22.383 28.976 22.4487 29.1065C22.5144 29.2359 22.5473 29.3996 22.5473 29.5978V31.0779H22.1894V29.6221C22.1894 29.4391 22.1418 29.2965 22.0468 29.1944C21.9518 29.0913 21.8213 29.0397 21.6555 29.0397C21.5413 29.0397 21.4392 29.0645 21.3492 29.114C21.2602 29.1636 21.19 29.2359 21.1384 29.3309C21.0868 29.4259 21.0611 29.5412 21.0611 29.6767Z" fill="#0DC7D6"/>
<path d="M24.9529 32C24.78 32 24.6314 31.9777 24.507 31.9332C24.3827 31.8898 24.2791 31.8321 24.1961 31.7604C24.1143 31.6896 24.049 31.6138 24.0005 31.5329L24.2856 31.3327C24.318 31.3752 24.3589 31.4237 24.4085 31.4783C24.458 31.5339 24.5257 31.5819 24.6117 31.6224C24.6986 31.6638 24.8124 31.6845 24.9529 31.6845C25.1409 31.6845 25.2961 31.639 25.4185 31.548C25.5408 31.4571 25.602 31.3145 25.602 31.1204V30.6472H25.5716C25.5453 30.6897 25.5079 30.7423 25.4594 30.805C25.4119 30.8666 25.3431 30.9217 25.2532 30.9703C25.1642 31.0178 25.0439 31.0415 24.8922 31.0415C24.7042 31.0415 24.5353 30.997 24.3857 30.9081C24.2371 30.8191 24.1193 30.6897 24.0324 30.5199C23.9464 30.35 23.9035 30.1438 23.9035 29.9011C23.9035 29.6625 23.9454 29.4547 24.0293 29.2778C24.1132 29.0999 24.23 28.9624 24.3796 28.8653C24.5293 28.7673 24.7022 28.7182 24.8983 28.7182C25.0499 28.7182 25.1703 28.7435 25.2592 28.7941C25.3492 28.8436 25.418 28.9002 25.4655 28.9639C25.514 29.0266 25.5514 29.0781 25.5777 29.1186H25.6141V28.7486H25.9599V31.1447C25.9599 31.3448 25.9144 31.5076 25.8234 31.633C25.7334 31.7594 25.6121 31.8519 25.4594 31.9105C25.3078 31.9701 25.1389 32 24.9529 32ZM24.9408 30.72C25.0843 30.72 25.2056 30.6872 25.3047 30.6215C25.4038 30.5557 25.4791 30.4612 25.5307 30.3379C25.5822 30.2145 25.608 30.0669 25.608 29.895C25.608 29.7272 25.5828 29.5791 25.5322 29.4507C25.4817 29.3223 25.4068 29.2217 25.3078 29.1489C25.2087 29.0761 25.0863 29.0397 24.9408 29.0397C24.7891 29.0397 24.6627 29.0781 24.5616 29.155C24.4615 29.2318 24.3862 29.3349 24.3357 29.4644C24.2861 29.5938 24.2614 29.7373 24.2614 29.895C24.2614 30.0568 24.2866 30.1999 24.3372 30.3242C24.3887 30.4476 24.4646 30.5446 24.5647 30.6154C24.6658 30.6852 24.7911 30.72 24.9408 30.72Z" fill="#0DC7D6"/>
<path d="M30.4519 28.7486V29.0519H29.2448V28.7486H30.4519ZM29.5966 28.1905H29.9545V30.4107C29.9545 30.5118 29.9692 30.5876 29.9985 30.6381C30.0288 30.6877 30.0672 30.721 30.1137 30.7382C30.1612 30.7544 30.2113 30.7625 30.2639 30.7625C30.3033 30.7625 30.3356 30.7605 30.3609 30.7564C30.3862 30.7514 30.4064 30.7473 30.4216 30.7443L30.4944 31.0658C30.4701 31.0749 30.4362 31.084 30.3928 31.0931C30.3493 31.1032 30.2942 31.1083 30.2275 31.1083C30.1264 31.1083 30.0273 31.0865 29.9302 31.043C29.8342 30.9996 29.7543 30.9334 29.6906 30.8444C29.6279 30.7554 29.5966 30.6432 29.5966 30.5077V28.1905Z" fill="#0DC7D6"/>
<path d="M32.2096 29.6767V31.0779H31.8517V27.9721H32.2096V29.1125H32.2399C32.2945 28.9922 32.3764 28.8967 32.4856 28.8259C32.5958 28.7541 32.7424 28.7182 32.9254 28.7182C33.0841 28.7182 33.2232 28.7501 33.3425 28.8138C33.4618 28.8765 33.5543 28.973 33.62 29.1034C33.6867 29.2328 33.7201 29.3976 33.7201 29.5978V31.0779H33.3622V29.6221C33.3622 29.4371 33.3141 29.294 33.2181 29.1929C33.1231 29.0908 32.9911 29.0397 32.8223 29.0397C32.705 29.0397 32.5999 29.0645 32.5069 29.114C32.4148 29.1636 32.3421 29.2359 32.2885 29.3309C32.2359 29.4259 32.2096 29.5412 32.2096 29.6767Z" fill="#0DC7D6"/>
<path d="M37.2851 28.6454H37.6005C37.6005 28.7991 37.5803 28.928 37.5399 29.0321C37.4994 29.1353 37.4286 29.2131 37.3275 29.2657C37.2264 29.3173 37.0849 29.343 36.9029 29.343V29.0943C37.0283 29.0943 37.1173 29.0792 37.1698 29.0488C37.2234 29.0175 37.2558 28.969 37.2669 28.9032C37.279 28.8365 37.2851 28.7506 37.2851 28.6454ZM36.6542 30.1256V28.7486H37.0121V31.0779H36.6542V30.6836H36.6299C36.5753 30.8019 36.4904 30.9025 36.3752 30.9854C36.2599 31.0673 36.1143 31.1083 35.9384 31.1083C35.7928 31.1083 35.6634 31.0764 35.5502 31.0127C35.437 30.948 35.348 30.851 35.2833 30.7215C35.2186 30.5911 35.1862 30.4268 35.1862 30.2287V28.7486H35.5441V30.2044C35.5441 30.3743 35.5916 30.5097 35.6867 30.6108C35.7827 30.7119 35.905 30.7625 36.0537 30.7625C36.1426 30.7625 36.2331 30.7397 36.3251 30.6943C36.4181 30.6488 36.496 30.579 36.5587 30.485C36.6224 30.3909 36.6542 30.2711 36.6542 30.1256Z" fill="#0DC7D6"/>
<path d="M40.5468 28.5726H40.8804C40.8804 28.8032 40.8299 28.9861 40.7288 29.1216C40.6287 29.2571 40.4528 29.3248 40.201 29.3248V29.0701C40.3021 29.0701 40.3769 29.0493 40.4255 29.0079C40.475 28.9664 40.5074 28.9083 40.5225 28.8335C40.5387 28.7587 40.5468 28.6717 40.5468 28.5726ZM39.6005 31.1265C39.3902 31.1265 39.2057 31.0764 39.047 30.9763C38.8892 30.8762 38.7659 30.7362 38.6769 30.5562C38.589 30.3763 38.545 30.166 38.545 29.9254C38.545 29.6827 38.589 29.4709 38.6769 29.29C38.7659 29.109 38.8892 28.9685 39.047 28.8684C39.2057 28.7683 39.3902 28.7182 39.6005 28.7182C39.8108 28.7182 39.9948 28.7683 40.1525 28.8684C40.3112 28.9685 40.4346 29.109 40.5225 29.29C40.6115 29.4709 40.656 29.6827 40.656 29.9254C40.656 30.166 40.6115 30.3763 40.5225 30.5562C40.4346 30.7362 40.3112 30.8762 40.1525 30.9763C39.9948 31.0764 39.8108 31.1265 39.6005 31.1265ZM39.6005 30.805C39.7602 30.805 39.8917 30.764 39.9948 30.6821C40.0979 30.6002 40.1742 30.4926 40.2238 30.3591C40.2733 30.2256 40.2981 30.0811 40.2981 29.9254C40.2981 29.7697 40.2733 29.6246 40.2238 29.4901C40.1742 29.3557 40.0979 29.247 39.9948 29.1641C39.8917 29.0812 39.7602 29.0397 39.6005 29.0397C39.4407 29.0397 39.3093 29.0812 39.2062 29.1641C39.1031 29.247 39.0267 29.3557 38.9772 29.4901C38.9277 29.6246 38.9029 29.7697 38.9029 29.9254C38.9029 30.0811 38.9277 30.2256 38.9772 30.3591C39.0267 30.4926 39.1031 30.6002 39.2062 30.6821C39.3093 30.764 39.4407 30.805 39.6005 30.805Z" fill="#0DC7D6"/>
<path d="M42.3758 29.6767V31.0779H42.0179V28.7486H42.3636V29.1125H42.394C42.4486 28.9942 42.5315 28.8992 42.6427 28.8274C42.7539 28.7546 42.8975 28.7182 43.0734 28.7182C43.2311 28.7182 43.3691 28.7506 43.4874 28.8153C43.6057 28.879 43.6977 28.976 43.7634 29.1065C43.8291 29.2359 43.862 29.3996 43.862 29.5978V31.0779H43.5041V29.6221C43.5041 29.4391 43.4565 29.2965 43.3615 29.1944C43.2665 29.0913 43.1361 29.0397 42.9702 29.0397C42.856 29.0397 42.7539 29.0645 42.6639 29.114C42.5749 29.1636 42.5047 29.2359 42.4531 29.3309C42.4016 29.4259 42.3758 29.5412 42.3758 29.6767Z" fill="#0DC7D6"/>
<path d="M46.2676 32C46.0947 32 45.9461 31.9777 45.8217 31.9332C45.6974 31.8898 45.5938 31.8321 45.5109 31.7604C45.429 31.6896 45.3638 31.6138 45.3152 31.5329L45.6003 31.3327C45.6327 31.3752 45.6736 31.4237 45.7232 31.4783C45.7727 31.5339 45.8404 31.5819 45.9264 31.6224C46.0133 31.6638 46.1271 31.6845 46.2676 31.6845C46.4556 31.6845 46.6108 31.639 46.7332 31.548C46.8555 31.4571 46.9167 31.3145 46.9167 31.1204V30.6472H46.8863C46.86 30.6897 46.8226 30.7423 46.7741 30.805C46.7266 30.8666 46.6578 30.9217 46.5679 30.9703C46.4789 31.0178 46.3586 31.0415 46.2069 31.0415C46.0189 31.0415 45.85 30.997 45.7004 30.9081C45.5518 30.8191 45.434 30.6897 45.3471 30.5199C45.2611 30.35 45.2182 30.1438 45.2182 29.9011C45.2182 29.6625 45.2601 29.4547 45.344 29.2778C45.428 29.0999 45.5447 28.9624 45.6944 28.8653C45.844 28.7673 46.0169 28.7182 46.213 28.7182C46.3647 28.7182 46.485 28.7435 46.5739 28.7941C46.6639 28.8436 46.7327 28.9002 46.7802 28.9639C46.8287 29.0266 46.8661 29.0781 46.8924 29.1186H46.9288V28.7486H47.2746V31.1447C47.2746 31.3448 47.2291 31.5076 47.1381 31.633C47.0481 31.7594 46.9268 31.8519 46.7741 31.9105C46.6225 31.9701 46.4536 32 46.2676 32ZM46.2555 30.72C46.399 30.72 46.5203 30.6872 46.6194 30.6215C46.7185 30.5557 46.7938 30.4612 46.8454 30.3379C46.8969 30.2145 46.9227 30.0669 46.9227 29.895C46.9227 29.7272 46.8975 29.5791 46.8469 29.4507C46.7964 29.3223 46.7215 29.2217 46.6225 29.1489C46.5234 29.0761 46.4011 29.0397 46.2555 29.0397C46.1038 29.0397 45.9774 29.0781 45.8763 29.155C45.7762 29.2318 45.7009 29.3349 45.6504 29.4644C45.6008 29.5938 45.5761 29.7373 45.5761 29.895C45.5761 30.0568 45.6013 30.1999 45.6519 30.3242C45.7034 30.4476 45.7793 30.5446 45.8794 30.6154C45.9805 30.6852 46.1058 30.72 46.2555 30.72Z" fill="#0DC7D6"/>
<path d="M51.1115 29.6767V31.0779H50.7536V27.9721H51.1115V29.1125H51.1418C51.1964 28.9922 51.2783 28.8967 51.3875 28.8259C51.4977 28.7541 51.6443 28.7182 51.8273 28.7182C51.986 28.7182 52.125 28.7501 52.2443 28.8138C52.3636 28.8765 52.4561 28.973 52.5218 29.1034C52.5886 29.2328 52.6219 29.3976 52.6219 29.5978V31.0779H52.264V29.6221C52.264 29.4371 52.216 29.294 52.12 29.1929C52.0249 29.0908 51.893 29.0397 51.7241 29.0397C51.6069 29.0397 51.5017 29.0645 51.4087 29.114C51.3167 29.1636 51.2439 29.2359 51.1903 29.3309C51.1378 29.4259 51.1115 29.5412 51.1115 29.6767Z" fill="#0DC7D6"/>
<path d="M54.0881 31.0779V28.7486H54.446V31.0779H54.0881ZM54.2701 28.3603C54.2003 28.3603 54.1401 28.3366 54.0896 28.2891C54.0401 28.2415 54.0153 28.1844 54.0153 28.1177C54.0153 28.051 54.0401 27.9938 54.0896 27.9463C54.1401 27.8988 54.2003 27.875 54.2701 27.875C54.3398 27.875 54.3995 27.8988 54.449 27.9463C54.4996 27.9938 54.5248 28.051 54.5248 28.1177C54.5248 28.1844 54.4996 28.2415 54.449 28.2891C54.3995 28.3366 54.3398 28.3603 54.2701 28.3603Z" fill="#0DC7D6"/>
<path d="M56.8895 31.1265C56.6651 31.1265 56.4715 31.0769 56.3087 30.9778C56.1469 30.8777 56.0221 30.7382 55.9341 30.5593C55.8472 30.3793 55.8037 30.17 55.8037 29.9314C55.8037 29.6928 55.8472 29.4826 55.9341 29.3006C56.0221 29.1176 56.1444 28.975 56.3011 28.8729C56.4588 28.7698 56.6428 28.7182 56.8531 28.7182C56.9745 28.7182 57.0943 28.7384 57.2125 28.7789C57.3308 28.8193 57.4385 28.885 57.5356 28.976C57.6326 29.066 57.71 29.1853 57.7676 29.3339C57.8252 29.4826 57.854 29.6655 57.854 29.8829V30.0346H56.0585V29.7252H57.4901C57.4901 29.5938 57.4638 29.4765 57.4112 29.3734C57.3596 29.2702 57.2858 29.1889 57.1898 29.1292C57.0948 29.0696 56.9825 29.0397 56.8531 29.0397C56.7106 29.0397 56.5872 29.0751 56.4831 29.1459C56.38 29.2156 56.3006 29.3066 56.245 29.4189C56.1894 29.5311 56.1616 29.6514 56.1616 29.7798V29.986C56.1616 30.162 56.1919 30.3111 56.2526 30.4334C56.3143 30.5547 56.3997 30.6472 56.5089 30.7109C56.6181 30.7736 56.745 30.805 56.8895 30.805C56.9836 30.805 57.0685 30.7918 57.1443 30.7655C57.2211 30.7382 57.2874 30.6978 57.343 30.6442C57.3986 30.5896 57.4415 30.5219 57.4719 30.441L57.8176 30.538C57.7812 30.6553 57.7201 30.7584 57.6341 30.8474C57.5482 30.9354 57.442 31.0041 57.3157 31.0537C57.1893 31.1022 57.0472 31.1265 56.8895 31.1265ZM57.1504 28.4695L56.8349 28.0449L56.5195 28.4695H56.1798V28.4453L56.6711 27.8144H56.9987L57.4901 28.4453V28.4695H57.1504ZM56.8349 31.8483C56.7652 31.8483 56.705 31.8246 56.6545 31.777C56.6049 31.7295 56.5802 31.6724 56.5802 31.6057C56.5802 31.539 56.6049 31.4818 56.6545 31.4343C56.705 31.3868 56.7652 31.363 56.8349 31.363C56.9047 31.363 56.9643 31.3868 57.0139 31.4343C57.0644 31.4818 57.0897 31.539 57.0897 31.6057C57.0897 31.6724 57.0644 31.7295 57.0139 31.777C56.9643 31.8246 56.9047 31.8483 56.8349 31.8483Z" fill="#0DC7D6"/>
<path d="M60.6779 30.1256V28.7486H61.0358V31.0779H60.6779V30.6836H60.6536C60.599 30.8019 60.5141 30.9025 60.3988 30.9854C60.2836 31.0673 60.138 31.1083 59.9621 31.1083C59.8165 31.1083 59.6871 31.0764 59.5738 31.0127C59.4606 30.948 59.3716 30.851 59.3069 30.7215C59.2422 30.5911 59.2099 30.4268 59.2099 30.2287V28.7486H59.5678V30.2044C59.5678 30.3743 59.6153 30.5097 59.7103 30.6108C59.8064 30.7119 59.9287 30.7625 60.0773 30.7625C60.1663 30.7625 60.2568 30.7397 60.3488 30.6943C60.4418 30.6488 60.5196 30.579 60.5823 30.485C60.646 30.3909 60.6779 30.2711 60.6779 30.1256Z" fill="#0DC7D6"/>
<path d="M65.4614 31.1265C65.2431 31.1265 65.055 31.0749 64.8973 30.9718C64.7396 30.8686 64.6183 30.7266 64.5333 30.5456C64.4484 30.3647 64.406 30.1579 64.406 29.9254C64.406 29.6888 64.4494 29.48 64.5364 29.2991C64.6243 29.1171 64.7467 28.975 64.9034 28.8729C65.0611 28.7698 65.2451 28.7182 65.4554 28.7182C65.6192 28.7182 65.7668 28.7486 65.8982 28.8092C66.0296 28.8699 66.1373 28.9548 66.2212 29.064C66.3051 29.1732 66.3572 29.3006 66.3774 29.4462H66.0195C65.9922 29.34 65.9316 29.246 65.8375 29.1641C65.7445 29.0812 65.6192 29.0397 65.4614 29.0397C65.3219 29.0397 65.1996 29.0761 65.0945 29.1489C64.9903 29.2207 64.9089 29.3223 64.8503 29.4537C64.7927 29.5842 64.7639 29.7373 64.7639 29.9132C64.7639 30.0932 64.7922 30.2499 64.8488 30.3834C64.9064 30.5168 64.9873 30.6204 65.0914 30.6943C65.1966 30.7681 65.3199 30.805 65.4614 30.805C65.5545 30.805 65.6389 30.7888 65.7147 30.7564C65.7905 30.7241 65.8547 30.6776 65.9073 30.6169C65.9599 30.5562 65.9973 30.4835 66.0195 30.3985H66.3774C66.3572 30.536 66.3072 30.6599 66.2273 30.7701C66.1484 30.8793 66.0438 30.9662 65.9134 31.0309C65.784 31.0946 65.6333 31.1265 65.4614 31.1265Z" fill="#0DC7D6"/>
<path d="M69.18 30.1256V28.7486H69.5379V31.0779H69.18V30.6836H69.1558C69.1012 30.8019 69.0162 30.9025 68.901 30.9854C68.7857 31.0673 68.6401 31.1083 68.4642 31.1083C68.3186 31.1083 68.1892 31.0764 68.076 31.0127C67.9628 30.948 67.8738 30.851 67.8091 30.7215C67.7444 30.5911 67.712 30.4268 67.712 30.2287V28.7486H68.0699V30.2044C68.0699 30.3743 68.1174 30.5097 68.2125 30.6108C68.3085 30.7119 68.4309 30.7625 68.5795 30.7625C68.6684 30.7625 68.7589 30.7397 68.8509 30.6943C68.9439 30.6488 69.0218 30.579 69.0845 30.485C69.1482 30.3909 69.18 30.2711 69.18 30.1256ZM68.4763 28.4331L68.0032 27.7295H68.4218L68.7918 28.4331H68.4763Z" fill="#0DC7D6"/>
<path d="M71.3627 29.6767V31.0779H71.0048V28.7486H71.3506V29.1125H71.3809C71.4355 28.9942 71.5184 28.8992 71.6296 28.8274C71.7408 28.7546 71.8844 28.7182 72.0603 28.7182C72.218 28.7182 72.356 28.7506 72.4743 28.8153C72.5926 28.879 72.6846 28.976 72.7503 29.1065C72.8161 29.2359 72.8489 29.3996 72.8489 29.5978V31.0779H72.491V29.6221C72.491 29.4391 72.4435 29.2965 72.3485 29.1944C72.2534 29.0913 72.123 29.0397 71.9572 29.0397C71.8429 29.0397 71.7408 29.0645 71.6509 29.114C71.5619 29.1636 71.4916 29.2359 71.4401 29.3309C71.3885 29.4259 71.3627 29.5412 71.3627 29.6767Z" fill="#0DC7D6"/>
<path d="M75.2545 32C75.0817 32 74.933 31.9777 74.8087 31.9332C74.6843 31.8898 74.5807 31.8321 74.4978 31.7604C74.4159 31.6896 74.3507 31.6138 74.3022 31.5329L74.5873 31.3327C74.6196 31.3752 74.6606 31.4237 74.7101 31.4783C74.7597 31.5339 74.8274 31.5819 74.9133 31.6224C75.0003 31.6638 75.114 31.6845 75.2545 31.6845C75.4426 31.6845 75.5978 31.639 75.7201 31.548C75.8425 31.4571 75.9036 31.3145 75.9036 31.1204V30.6472H75.8733C75.847 30.6897 75.8096 30.7423 75.7611 30.805C75.7135 30.8666 75.6448 30.9217 75.5548 30.9703C75.4659 31.0178 75.3455 31.0415 75.1939 31.0415C75.0058 31.0415 74.837 30.997 74.6874 30.9081C74.5387 30.8191 74.421 30.6897 74.334 30.5199C74.2481 30.35 74.2051 30.1438 74.2051 29.9011C74.2051 29.6625 74.2471 29.4547 74.331 29.2778C74.4149 29.0999 74.5317 28.9624 74.6813 28.8653C74.8309 28.7673 75.0038 28.7182 75.2 28.7182C75.3516 28.7182 75.4719 28.7435 75.5609 28.7941C75.6509 28.8436 75.7196 28.9002 75.7671 28.9639C75.8157 29.0266 75.8531 29.0781 75.8793 29.1186H75.9157V28.7486H76.2615V31.1447C76.2615 31.3448 76.216 31.5076 76.125 31.633C76.035 31.7594 75.9137 31.8519 75.7611 31.9105C75.6094 31.9701 75.4406 32 75.2545 32ZM75.2424 30.72C75.386 30.72 75.5073 30.6872 75.6064 30.6215C75.7055 30.5557 75.7808 30.4612 75.8323 30.3379C75.8839 30.2145 75.9097 30.0669 75.9097 29.895C75.9097 29.7272 75.8844 29.5791 75.8339 29.4507C75.7833 29.3223 75.7085 29.2217 75.6094 29.1489C75.5103 29.0761 75.388 29.0397 75.2424 29.0397C75.0908 29.0397 74.9644 29.0781 74.8633 29.155C74.7632 29.2318 74.6879 29.3349 74.6373 29.4644C74.5878 29.5938 74.563 29.7373 74.563 29.895C74.563 30.0568 74.5883 30.1999 74.6388 30.3242C74.6904 30.4476 74.7662 30.5446 74.8663 30.6154C74.9674 30.6852 75.0928 30.72 75.2424 30.72Z" fill="#0DC7D6"/>
<path d="M79.7891 31.0779V27.9721H80.147V29.1186H80.1773C80.2036 29.0781 80.24 29.0266 80.2865 28.9639C80.334 28.9002 80.4017 28.8436 80.4897 28.7941C80.5787 28.7435 80.699 28.7182 80.8506 28.7182C81.0468 28.7182 81.2196 28.7673 81.3693 28.8653C81.5189 28.9634 81.6357 29.1024 81.7196 29.2824C81.8035 29.4623 81.8455 29.6746 81.8455 29.9193C81.8455 30.166 81.8035 30.3798 81.7196 30.5608C81.6357 30.7408 81.5194 30.8803 81.3708 30.9794C81.2222 31.0774 81.0508 31.1265 80.8567 31.1265C80.7071 31.1265 80.5872 31.1017 80.4973 31.0521C80.4073 31.0016 80.338 30.9445 80.2895 30.8808C80.241 30.8161 80.2036 30.7625 80.1773 30.72H80.1348V31.0779H79.7891ZM80.1409 29.9132C80.1409 30.0892 80.1667 30.2443 80.2182 30.3788C80.2698 30.5123 80.3451 30.6169 80.4442 30.6927C80.5433 30.7675 80.6646 30.805 80.8082 30.805C80.9578 30.805 81.0826 30.7655 81.1827 30.6867C81.2838 30.6068 81.3597 30.4996 81.4102 30.3652C81.4618 30.2297 81.4876 30.079 81.4876 29.9132C81.4876 29.7495 81.4623 29.6019 81.4117 29.4704C81.3622 29.338 81.2869 29.2333 81.1858 29.1565C81.0857 29.0787 80.9598 29.0397 80.8082 29.0397C80.6626 29.0397 80.5402 29.0766 80.4412 29.1504C80.3421 29.2232 80.2673 29.3253 80.2167 29.4568C80.1662 29.5872 80.1409 29.7393 80.1409 29.9132Z" fill="#0DC7D6"/>
<path d="M83.8898 31.1325C83.7422 31.1325 83.6082 31.1047 83.4879 31.0491C83.3676 30.9925 83.272 30.9111 83.2013 30.805C83.1305 30.6978 83.0951 30.5684 83.0951 30.4167C83.0951 30.2833 83.1214 30.1751 83.174 30.0922C83.2266 30.0083 83.2968 29.9426 83.3848 29.895C83.4727 29.8475 83.5698 29.8121 83.6759 29.7889C83.7831 29.7646 83.8908 29.7454 83.999 29.7313C84.1405 29.7131 84.2553 29.6994 84.3432 29.6903C84.4322 29.6802 84.4969 29.6635 84.5373 29.6403C84.5788 29.617 84.5995 29.5766 84.5995 29.5189V29.5068C84.5995 29.3572 84.5586 29.2409 84.4767 29.158C84.3958 29.0751 84.2729 29.0337 84.1082 29.0337C83.9373 29.0337 83.8033 29.0711 83.7063 29.1459C83.6092 29.2207 83.541 29.3006 83.5015 29.3855L83.1618 29.2642C83.2225 29.1226 83.3034 29.0124 83.4045 28.9336C83.5066 28.8537 83.6178 28.7981 83.7381 28.7668C83.8595 28.7344 83.9787 28.7182 84.096 28.7182C84.1708 28.7182 84.2568 28.7273 84.3538 28.7455C84.4519 28.7627 84.5464 28.7986 84.6374 28.8532C84.7294 28.9078 84.8058 28.9902 84.8664 29.1004C84.9271 29.2106 84.9574 29.3582 84.9574 29.5432V31.0779H84.5995V30.7625H84.5813C84.5571 30.813 84.5166 30.8671 84.46 30.9248C84.4034 30.9824 84.3281 31.0314 84.234 31.0719C84.14 31.1123 84.0253 31.1325 83.8898 31.1325ZM83.9444 30.811C84.0859 30.811 84.2052 30.7832 84.3023 30.7276C84.4003 30.672 84.4741 30.6002 84.5237 30.5123C84.5742 30.4243 84.5995 30.3318 84.5995 30.2347V29.9072C84.5843 29.9254 84.551 29.9421 84.4994 29.9572C84.4489 29.9714 84.3902 29.984 84.3235 29.9951C84.2578 30.0052 84.1936 30.0143 84.1309 30.0224C84.0692 30.0295 84.0192 30.0356 83.9808 30.0406C83.8878 30.0528 83.8008 30.0725 83.7199 30.0998C83.6401 30.1261 83.5754 30.166 83.5258 30.2196C83.4773 30.2722 83.453 30.3439 83.453 30.4349C83.453 30.5593 83.499 30.6533 83.591 30.717C83.684 30.7797 83.8018 30.811 83.9444 30.811ZM84.1021 31.8483C84.0323 31.8483 83.9722 31.8246 83.9216 31.777C83.8721 31.7295 83.8473 31.6724 83.8473 31.6057C83.8473 31.539 83.8721 31.4818 83.9216 31.4343C83.9722 31.3868 84.0323 31.363 84.1021 31.363C84.1719 31.363 84.2315 31.3868 84.281 31.4343C84.3316 31.4818 84.3569 31.539 84.3569 31.6057C84.3569 31.6724 84.3316 31.7295 84.281 31.777C84.2315 31.8246 84.1719 31.8483 84.1021 31.8483Z" fill="#0DC7D6"/>
<path d="M86.7799 29.6767V31.0779H86.422V28.7486H86.7678V29.1125H86.7981C86.8527 28.9942 86.9356 28.8992 87.0469 28.8274C87.1581 28.7546 87.3016 28.7182 87.4775 28.7182C87.6353 28.7182 87.7733 28.7506 87.8915 28.8153C88.0098 28.879 88.1018 28.976 88.1676 29.1065C88.2333 29.2359 88.2661 29.3996 88.2661 29.5978V31.0779H87.9082V29.6221C87.9082 29.4391 87.8607 29.2965 87.7657 29.1944C87.6706 29.0913 87.5402 29.0397 87.3744 29.0397C87.2602 29.0397 87.1581 29.0645 87.0681 29.114C86.9791 29.1636 86.9088 29.2359 86.8573 29.3309C86.8057 29.4259 86.7799 29.5412 86.7799 29.6767Z" fill="#0DC7D6"/>
<path d="M92.0776 30.2287L92.0716 29.7859H92.1444L93.1635 28.7486H93.6063L92.5205 29.8465H92.4902L92.0776 30.2287ZM91.744 31.0779V27.9721H92.1019V31.0779H91.744ZM93.2241 31.0779L92.3142 29.9254L92.569 29.6767L93.6791 31.0779H93.2241Z" fill="#0DC7D6"/>
<path d="M95.2362 29.6767V31.0779H94.8783V27.9721H95.2362V29.1125H95.2666C95.3212 28.9922 95.403 28.8967 95.5122 28.8259C95.6224 28.7541 95.769 28.7182 95.952 28.7182C96.1108 28.7182 96.2498 28.7501 96.3691 28.8138C96.4884 28.8765 96.5809 28.973 96.6466 29.1034C96.7133 29.2328 96.7467 29.3976 96.7467 29.5978V31.0779H96.3888V29.6221C96.3888 29.4371 96.3408 29.294 96.2447 29.1929C96.1497 29.0908 96.0177 29.0397 95.8489 29.0397C95.7316 29.0397 95.6265 29.0645 95.5335 29.114C95.4415 29.1636 95.3687 29.2359 95.3151 29.3309C95.2625 29.4259 95.2362 29.5412 95.2362 29.6767Z" fill="#0DC7D6"/>
<path d="M100.105 28.5726H100.439C100.439 28.8032 100.389 28.9861 100.287 29.1216C100.187 29.2571 100.011 29.3248 99.7597 29.3248V29.0701C99.8608 29.0701 99.9356 29.0493 99.9841 29.0079C100.034 28.9664 100.066 28.9083 100.081 28.8335C100.097 28.7587 100.105 28.6717 100.105 28.5726ZM99.1592 31.1265C98.9489 31.1265 98.7644 31.0764 98.6056 30.9763C98.4479 30.8762 98.3246 30.7362 98.2356 30.5562C98.1476 30.3763 98.1037 30.166 98.1037 29.9254C98.1037 29.6827 98.1476 29.4709 98.2356 29.29C98.3246 29.109 98.4479 28.9685 98.6056 28.8684C98.7644 28.7683 98.9489 28.7182 99.1592 28.7182C99.3694 28.7182 99.5534 28.7683 99.7112 28.8684C99.8699 28.9685 99.9932 29.109 100.081 29.29C100.17 29.4709 100.215 29.6827 100.215 29.9254C100.215 30.166 100.17 30.3763 100.081 30.5562C99.9932 30.7362 99.8699 30.8762 99.7112 30.9763C99.5534 31.0764 99.3694 31.1265 99.1592 31.1265ZM99.1592 30.805C99.3189 30.805 99.4503 30.764 99.5534 30.6821C99.6566 30.6002 99.7329 30.4926 99.7824 30.3591C99.832 30.2256 99.8568 30.0811 99.8568 29.9254C99.8568 29.7697 99.832 29.6246 99.7824 29.4901C99.7329 29.3557 99.6566 29.247 99.5534 29.1641C99.4503 29.0812 99.3189 29.0397 99.1592 29.0397C98.9994 29.0397 98.868 29.0812 98.7649 29.1641C98.6617 29.247 98.5854 29.3557 98.5359 29.4901C98.4863 29.6246 98.4616 29.7697 98.4616 29.9254C98.4616 30.0811 98.4863 30.2256 98.5359 30.3591C98.5854 30.4926 98.6617 30.6002 98.7649 30.6821C98.868 30.764 98.9994 30.805 99.1592 30.805ZM99.3169 28.4331H99.0196V28.1056C99.1258 28.0995 99.2006 28.0848 99.2441 28.0616C99.2886 28.0383 99.3108 28.0024 99.3108 27.9539C99.3108 27.8993 99.279 27.8594 99.2153 27.8341C99.1516 27.8088 99.0742 27.7962 98.9832 27.7962L98.9954 27.5657C99.2047 27.5657 99.3629 27.6021 99.47 27.6749C99.5782 27.7477 99.6323 27.8447 99.6323 27.966C99.6323 28.0692 99.5994 28.1445 99.5337 28.192C99.468 28.2395 99.3957 28.2693 99.3169 28.2815V28.4331Z" fill="#0DC7D6"/>
<path d="M101.577 31.0779V28.7486H101.934V31.0779H101.577ZM101.759 28.3603C101.689 28.3603 101.629 28.3366 101.578 28.2891C101.529 28.2415 101.504 28.1844 101.504 28.1177C101.504 28.051 101.529 27.9938 101.578 27.9463C101.629 27.8988 101.689 27.875 101.759 27.875C101.828 27.875 101.888 27.8988 101.937 27.9463C101.988 27.9938 102.013 28.051 102.013 28.1177C102.013 28.1844 101.988 28.2415 101.937 28.2891C101.888 28.3366 101.828 28.3603 101.759 28.3603Z" fill="#0DC7D6"/>
<path d="M105.772 29.6767V31.0779H105.414V28.7486H105.76V29.1125H105.79C105.845 28.9942 105.927 28.8992 106.039 28.8274C106.15 28.7546 106.293 28.7182 106.469 28.7182C106.627 28.7182 106.765 28.7506 106.883 28.8153C107.002 28.879 107.094 28.976 107.159 29.1065C107.225 29.2359 107.258 29.3996 107.258 29.5978V31.0779H106.9V29.6221C106.9 29.4391 106.852 29.2965 106.757 29.1944C106.662 29.0913 106.532 29.0397 106.366 29.0397C106.252 29.0397 106.15 29.0645 106.06 29.114C105.971 29.1636 105.901 29.2359 105.849 29.3309C105.798 29.4259 105.772 29.5412 105.772 29.6767Z" fill="#0DC7D6"/>
<path d="M109.664 32C109.491 32 109.342 31.9777 109.218 31.9332C109.093 31.8898 108.99 31.8321 108.907 31.7604C108.825 31.6896 108.76 31.6138 108.711 31.5329L108.996 31.3327C109.029 31.3752 109.07 31.4237 109.119 31.4783C109.169 31.5339 109.236 31.5819 109.322 31.6224C109.409 31.6638 109.523 31.6845 109.664 31.6845C109.852 31.6845 110.007 31.639 110.129 31.548C110.251 31.4571 110.313 31.3145 110.313 31.1204V30.6472H110.282C110.256 30.6897 110.219 30.7423 110.17 30.805C110.123 30.8666 110.054 30.9217 109.964 30.9703C109.875 31.0178 109.755 31.0415 109.603 31.0415C109.415 31.0415 109.246 30.997 109.096 30.9081C108.948 30.8191 108.83 30.6897 108.743 30.5199C108.657 30.35 108.614 30.1438 108.614 29.9011C108.614 29.6625 108.656 29.4547 108.74 29.2778C108.824 29.0999 108.941 28.9624 109.09 28.8653C109.24 28.7673 109.413 28.7182 109.609 28.7182C109.761 28.7182 109.881 28.7435 109.97 28.7941C110.06 28.8436 110.129 28.9002 110.176 28.9639C110.225 29.0266 110.262 29.0781 110.288 29.1186H110.325V28.7486H110.671V31.1447C110.671 31.3448 110.625 31.5076 110.534 31.633C110.444 31.7594 110.323 31.8519 110.17 31.9105C110.018 31.9701 109.85 32 109.664 32ZM109.651 30.72C109.795 30.72 109.916 30.6872 110.015 30.6215C110.114 30.5557 110.19 30.4612 110.241 30.3379C110.293 30.2145 110.319 30.0669 110.319 29.895C110.319 29.7272 110.293 29.5791 110.243 29.4507C110.192 29.3223 110.118 29.2217 110.018 29.1489C109.919 29.0761 109.797 29.0397 109.651 29.0397C109.5 29.0397 109.373 29.0781 109.272 29.155C109.172 29.2318 109.097 29.3349 109.046 29.4644C108.997 29.5938 108.972 29.7373 108.972 29.895C108.972 30.0568 108.997 30.1999 109.048 30.3242C109.099 30.4476 109.175 30.5446 109.275 30.6154C109.376 30.6852 109.502 30.72 109.651 30.72Z" fill="#0DC7D6"/>
<path d="M112.495 29.6767V31.0779H112.137V27.9721H112.495V29.1125H112.525C112.58 28.9922 112.662 28.8967 112.771 28.8259C112.881 28.7541 113.028 28.7182 113.211 28.7182C113.369 28.7182 113.508 28.7501 113.628 28.8138C113.747 28.8765 113.84 28.973 113.905 29.1034C113.972 29.2328 114.005 29.3976 114.005 29.5978V31.0779H113.647V29.6221C113.647 29.4371 113.599 29.294 113.503 29.1929C113.408 29.0908 113.276 29.0397 113.108 29.0397C112.99 29.0397 112.885 29.0645 112.792 29.114C112.7 29.1636 112.627 29.2359 112.574 29.3309C112.521 29.4259 112.495 29.5412 112.495 29.6767Z" fill="#0DC7D6"/>
<path d="M115.472 31.0779V28.7486H115.829V31.0779H115.472ZM115.654 28.3603C115.584 28.3603 115.524 28.3366 115.473 28.2891C115.424 28.2415 115.399 28.1844 115.399 28.1177C115.399 28.051 115.424 27.9938 115.473 27.9463C115.524 27.8988 115.584 27.875 115.654 27.875C115.723 27.875 115.783 27.8988 115.832 27.9463C115.883 27.9938 115.908 28.051 115.908 28.1177C115.908 28.1844 115.883 28.2415 115.832 28.2891C115.783 28.3366 115.723 28.3603 115.654 28.3603Z" fill="#0DC7D6"/>
<path d="M118.273 31.1265C118.049 31.1265 117.855 31.0769 117.692 30.9778C117.53 30.8777 117.406 30.7382 117.318 30.5593C117.231 30.3793 117.187 30.17 117.187 29.9314C117.187 29.6928 117.231 29.4826 117.318 29.3006C117.406 29.1176 117.528 28.975 117.685 28.8729C117.842 28.7698 118.026 28.7182 118.237 28.7182C118.358 28.7182 118.478 28.7384 118.596 28.7789C118.714 28.8193 118.822 28.885 118.919 28.976C119.016 29.066 119.093 29.1853 119.151 29.3339C119.209 29.4826 119.238 29.6655 119.238 29.8829V30.0346H117.442V29.7252H118.874C118.874 29.5938 118.847 29.4765 118.795 29.3734C118.743 29.2702 118.669 29.1889 118.573 29.1292C118.478 29.0696 118.366 29.0397 118.237 29.0397C118.094 29.0397 117.971 29.0751 117.867 29.1459C117.763 29.2156 117.684 29.3066 117.629 29.4189C117.573 29.5311 117.545 29.6514 117.545 29.7798V29.986C117.545 30.162 117.575 30.3111 117.636 30.4334C117.698 30.5547 117.783 30.6472 117.892 30.7109C118.002 30.7736 118.128 30.805 118.273 30.805C118.367 30.805 118.452 30.7918 118.528 30.7655C118.605 30.7382 118.671 30.6978 118.726 30.6442C118.782 30.5896 118.825 30.5219 118.855 30.441L119.201 30.538C119.165 30.6553 119.104 30.7584 119.018 30.8474C118.932 30.9354 118.826 31.0041 118.699 31.0537C118.573 31.1022 118.431 31.1265 118.273 31.1265ZM118.534 28.4695L118.218 28.0449L117.903 28.4695H117.563V28.4453L118.055 27.8144H118.382L118.874 28.4453V28.4695H118.534ZM118.218 31.8483C118.149 31.8483 118.089 31.8246 118.038 31.777C117.988 31.7295 117.964 31.6724 117.964 31.6057C117.964 31.539 117.988 31.4818 118.038 31.4343C118.089 31.3868 118.149 31.363 118.218 31.363C118.288 31.363 118.348 31.3868 118.397 31.4343C118.448 31.4818 118.473 31.539 118.473 31.6057C118.473 31.6724 118.448 31.7295 118.397 31.777C118.348 31.8246 118.288 31.8483 118.218 31.8483Z" fill="#0DC7D6"/>
<path d="M120.593 31.9514V28.7486H120.939V29.1186H120.982C121.008 29.0781 121.044 29.0266 121.091 28.9639C121.138 28.9002 121.206 28.8436 121.294 28.7941C121.383 28.7435 121.503 28.7182 121.655 28.7182C121.851 28.7182 122.024 28.7673 122.174 28.8653C122.323 28.9634 122.44 29.1024 122.524 29.2824C122.608 29.4623 122.65 29.6746 122.65 29.9193C122.65 30.166 122.608 30.3798 122.524 30.5608C122.44 30.7408 122.324 30.8803 122.175 30.9794C122.026 31.0774 121.855 31.1265 121.661 31.1265C121.511 31.1265 121.392 31.1017 121.302 31.0521C121.212 31.0016 121.142 30.9445 121.094 30.8808C121.045 30.8161 121.008 30.7625 120.982 30.72H120.951V31.9514H120.593ZM120.945 29.9132C120.945 30.0892 120.971 30.2443 121.023 30.3788C121.074 30.5123 121.149 30.6169 121.248 30.6927C121.348 30.7675 121.469 30.805 121.612 30.805C121.762 30.805 121.887 30.7655 121.987 30.6867C122.088 30.6068 122.164 30.4996 122.215 30.3652C122.266 30.2297 122.292 30.079 122.292 29.9132C122.292 29.7495 122.267 29.6019 122.216 29.4704C122.166 29.338 122.091 29.2333 121.99 29.1565C121.89 29.0787 121.764 29.0397 121.612 29.0397C121.467 29.0397 121.345 29.0766 121.245 29.1504C121.146 29.2232 121.072 29.3253 121.021 29.4568C120.97 29.5872 120.945 29.7393 120.945 29.9132Z" fill="#0DC7D6"/>
<path d="M26.4786 21.9789C25.9927 21.9789 25.5523 21.8423 25.1575 21.5689C24.7628 21.3108 24.4515 20.9692 24.2237 20.544C23.996 20.1037 23.8821 19.633 23.8821 19.1319C23.8821 18.1905 24.0871 17.2719 24.497 16.376C24.9222 15.4801 25.4764 14.6298 26.1597 13.8251C26.843 13.0203 27.587 12.2839 28.3917 11.6158C29.2117 10.9325 30.024 10.3479 30.8288 9.86204C31.6487 9.37615 32.3927 8.99655 33.0608 8.72324C33.7441 8.44992 34.2756 8.31327 34.6552 8.31327C35.0955 8.31327 35.4523 8.41196 35.7256 8.60936C36.0141 8.79157 36.1584 9.08006 36.1584 9.47485C36.1584 9.59632 36.128 9.69502 36.0673 9.77094C36.2647 9.81649 36.4241 9.93037 36.5456 10.1126C36.6671 10.2948 36.7278 10.5681 36.7278 10.9325C36.7278 11.0844 36.6898 11.4791 36.6139 12.1169C36.538 12.7546 36.4545 13.529 36.3634 14.44C36.2875 15.3511 36.2495 16.3001 36.2495 17.287C36.2495 17.4389 36.2723 17.5755 36.3178 17.697C36.3634 17.8033 36.4621 17.8564 36.6139 17.8564C37.2213 17.8564 37.8362 17.735 38.4588 17.492C39.0965 17.2339 39.7115 16.9226 40.3036 16.5582C40.911 16.1786 41.4576 15.8066 41.9435 15.4422C42.4446 15.0626 42.8621 14.7513 43.1962 14.5084C43.5454 14.2502 43.7732 14.1212 43.8795 14.1212C44.3957 14.1212 44.6539 14.3793 44.6539 14.8956C44.6539 15.0322 44.4868 15.3207 44.1528 15.761C43.8339 16.1862 43.3936 16.6797 42.8318 17.2415C42.27 17.7881 41.6398 18.3347 40.9414 18.8814C40.2581 19.4128 39.5444 19.8531 38.8004 20.2024C38.0716 20.5516 37.3655 20.7262 36.6822 20.7262C35.8471 20.7262 35.2094 20.5288 34.769 20.1341C34.3439 19.7393 34.0402 19.2078 33.858 18.5397C33.691 17.8564 33.5999 17.0897 33.5847 16.2393C32.8103 17.3478 32.0055 18.3347 31.1704 19.2002C30.3505 20.0505 29.5381 20.7262 28.7334 21.2273C27.9286 21.7284 27.177 21.9789 26.4786 21.9789ZM34.5413 10.5681C33.0532 11.2818 31.7171 12.1017 30.5327 13.0279C29.3483 13.939 28.4069 14.8956 27.7085 15.8977C27.0252 16.8999 26.6835 17.864 26.6835 18.7903C26.6835 19.0484 26.805 19.1775 27.048 19.1775C27.3365 19.1775 27.7161 19.0104 28.1868 18.6764C28.6726 18.3423 29.1965 17.902 29.7583 17.3554C30.3201 16.7936 30.8819 16.171 31.4437 15.4877C32.0055 14.7893 32.5294 14.0756 33.0153 13.3468C33.5012 12.6179 33.8884 11.9195 34.1769 11.2514C34.2832 11.0084 34.4046 10.7807 34.5413 10.5681Z" fill="#0DC7D6"/>
<path d="M41.2458 22.1156C40.8662 22.1156 40.5398 21.9789 40.2664 21.7056C40.0083 21.4323 39.8792 21.0375 39.8792 20.5212C39.8792 20.2935 39.9096 19.9215 39.9704 19.4052C40.0463 18.8738 40.1374 18.2664 40.2437 17.5831C40.3651 16.8999 40.479 16.1862 40.5853 15.4422C40.7068 14.6982 40.8055 13.9921 40.8814 13.324C40.9725 12.6559 41.0332 12.0865 41.0636 11.6158C41.094 11.0388 41.2458 10.6288 41.5191 10.3859C41.7924 10.1278 42.1189 9.9987 42.4985 9.9987C42.8022 9.9987 43.0755 10.0746 43.3184 10.2265C43.5766 10.3631 43.736 10.6592 43.7967 11.1147C43.8727 11.5551 43.8802 12.1928 43.8195 13.0279C44.4876 11.8132 45.1633 10.7275 45.8466 9.77094C46.545 8.81434 47.2739 8.05514 48.0331 7.49333C49.2934 6.53673 50.4322 6.05844 51.4495 6.05844C52.0265 6.05844 52.4061 6.1875 52.5883 6.44563C52.7705 6.70376 52.8616 6.96948 52.8616 7.24279C52.8616 7.425 52.8161 7.59203 52.725 7.74387C52.649 7.89571 52.482 8.05514 52.2239 8.22216C51.9658 8.38919 51.571 8.60936 51.0395 8.88267C50.3259 9.24709 49.6198 9.72539 48.9214 10.3176C48.2381 10.9097 47.5548 11.6689 46.8715 12.5952C46.1882 13.5214 45.4973 14.6602 44.7989 16.0116C44.1004 17.363 43.3792 18.9725 42.6352 20.8401C42.4985 21.3564 42.3011 21.698 42.043 21.865C41.8 22.0321 41.5343 22.1156 41.2458 22.1156Z" fill="#0DC7D6"/>
<path d="M62.8407 22.7761C61.8082 22.7761 60.8516 22.5559 59.971 22.1156C59.0903 21.6904 58.2855 21.1286 57.5567 20.4301C56.8279 19.7165 56.1749 18.9421 55.5979 18.107C55.0361 17.2567 54.5578 16.4216 54.1631 15.6016C53.9808 16.4367 53.8138 17.1504 53.662 17.7426C53.5253 18.3347 53.4114 18.8282 53.3203 19.223C53.2444 19.5267 53.1609 19.8228 53.0698 20.1113C52.9939 20.3998 52.8724 20.6351 52.7054 20.8173C52.5384 20.9995 52.303 21.0906 51.9993 21.0906C51.3464 21.0906 50.9288 20.8705 50.7466 20.4301C50.5644 19.9746 50.4733 19.3976 50.4733 18.6992C50.4733 18.0766 50.572 17.2567 50.7694 16.2393C50.982 15.222 51.2629 14.0832 51.6121 12.8229C51.9614 11.5627 52.3637 10.2644 52.8193 8.92822C53.29 7.57684 53.791 6.26342 54.3225 4.98796C54.8539 3.69732 55.3854 2.52814 55.9168 1.48045C56.2509 0.842715 56.5469 0.440338 56.8051 0.273313C57.0632 0.0911045 57.3669 0 57.7161 0C58.0654 0 58.3311 0.0911045 58.5133 0.273313C58.6955 0.455522 58.7866 0.698466 58.7866 1.00215C58.7866 1.19954 58.741 1.39693 58.6499 1.59433C58.5588 1.79172 58.4601 2.03466 58.3539 2.32316C58.0046 3.09755 57.6402 4.001 57.2606 5.03351C56.881 6.05084 56.5166 7.10614 56.1673 8.19939C55.8181 9.27746 55.5068 10.3024 55.2335 11.2742C55.9775 10.8338 56.8051 10.4087 57.7161 9.9987C58.6272 9.57354 59.5458 9.19394 60.472 8.85989C61.4134 8.51066 62.2941 8.23735 63.1141 8.03996C63.934 7.84256 64.6249 7.74387 65.1867 7.74387C65.627 7.74387 65.9611 7.87293 66.1888 8.13106C66.4166 8.38919 66.5305 8.67009 66.5305 8.97377C66.5305 9.20154 66.4621 9.4293 66.3255 9.65706C66.1888 9.88482 65.9003 10.0822 65.46 10.2492C64.0023 10.7351 62.5522 11.2286 61.1098 11.7297C59.6825 12.2308 58.0957 12.8229 56.3496 13.5062C56.714 14.2199 57.1391 14.9563 57.625 15.7155C58.1109 16.4595 58.6348 17.158 59.1966 17.8109C59.7584 18.4486 60.3354 18.9725 60.9275 19.3824C61.5197 19.7772 62.1043 19.9746 62.6813 19.9746C63.5316 19.9746 64.3516 19.8076 65.1411 19.4735C65.9307 19.1243 66.6595 18.7068 67.3276 18.2209C67.9957 17.7198 68.5803 17.2339 69.0814 16.7632C69.5976 16.2925 70 15.9281 70.2885 15.6699C70.4555 15.5029 70.615 15.3814 70.7668 15.3055C70.9338 15.2296 71.1388 15.1916 71.3818 15.1916C71.6703 15.1916 71.8904 15.2827 72.0423 15.465C72.2093 15.632 72.2852 15.8522 72.27 16.1255C72.2549 16.3836 72.1258 16.6417 71.8828 16.8999C71.6855 17.1124 71.3742 17.4541 70.949 17.9248C70.5391 18.3803 70.038 18.889 69.4458 19.4508C68.8688 19.9974 68.2235 20.5288 67.5098 21.0451C66.8114 21.5462 66.0673 21.9561 65.2778 22.275C64.4882 22.6091 63.6759 22.7761 62.8407 22.7761Z" fill="#0DC7D6"/>
<path d="M81.3705 21.9334C80.748 21.9334 80.2773 21.8347 79.9584 21.6373C79.6547 21.4551 79.4497 21.2425 79.3434 20.9995C79.2523 20.7566 79.2068 20.5668 79.2068 20.4301C79.2068 19.9898 79.4042 19.6254 79.799 19.3369C80.2089 19.0332 80.6644 18.8814 81.1655 18.8814C81.6514 18.8814 82.2512 18.813 82.9648 18.6764C83.6937 18.5245 84.4605 18.312 85.2652 18.0387C86.0851 17.7653 86.8671 17.4237 87.6111 17.0137C88.3704 16.6038 89.0309 16.1331 89.5927 15.6016C90.1545 15.0702 90.5417 14.4856 90.7542 13.8479C90.4202 13.7871 90.0861 13.7416 89.7521 13.7112C89.418 13.6656 89.084 13.6429 88.75 13.6429C87.6263 13.6429 86.4647 13.7643 85.2652 14.0073C84.0657 14.2502 82.8737 14.4856 81.6894 14.7133C81.4009 14.7741 81.1427 14.7209 80.915 14.5539C80.8846 14.8728 80.8542 15.1689 80.8239 15.4422C80.8087 15.7003 80.7935 15.9812 80.7783 16.2849C80.748 17.0289 80.6796 17.6059 80.5733 18.0159C80.4822 18.4107 80.3759 18.6916 80.2545 18.8586C80.133 19.0256 80.0039 19.1243 79.8673 19.1547C79.7306 19.185 79.6016 19.2002 79.4801 19.2002C79.4345 19.2002 79.4042 19.2002 79.389 19.2002C79.1157 19.2002 78.8575 19.1319 78.6146 18.9952C78.3717 18.8586 78.1743 18.5777 78.0224 18.1525C77.8706 17.7122 77.7947 17.0517 77.7947 16.171C77.7947 13.3771 78.0983 11.0084 78.7057 9.06488C79.3282 7.10614 80.2165 5.6181 81.3705 4.60077C82.5397 3.56825 83.9366 3.05199 85.5613 3.05199C86.8368 3.05199 87.8313 3.40123 88.545 4.09969C89.2586 4.78298 89.6154 5.76994 89.6154 7.06058C89.6154 7.7135 89.4864 8.36641 89.2282 9.01933C88.9701 9.67224 88.6057 10.3176 88.135 10.9553C88.4235 10.8946 88.7044 10.849 88.9777 10.8186C89.251 10.7731 89.5092 10.7503 89.7521 10.7503C91.1794 10.7503 92.2347 11.0084 92.918 11.5247C93.6012 12.0258 93.9429 12.7015 93.9429 13.5518C93.9429 14.4021 93.7 15.1992 93.2141 15.9433C92.7434 16.6873 92.1132 17.3706 91.3236 17.9931C90.5493 18.6005 89.6914 19.1547 88.75 19.6558C87.8085 20.1416 86.8671 20.5592 85.9257 20.9084C84.9843 21.2425 84.1112 21.493 83.3065 21.6601C82.5017 21.8423 81.8564 21.9334 81.3705 21.9334ZM81.1883 12.208C81.2794 12.1624 81.3781 12.1321 81.4844 12.1169C82.8509 11.8891 83.8986 11.5778 84.6275 11.1831C85.3563 10.7883 85.8574 10.2948 86.1307 9.70261C86.404 9.11043 86.5407 8.40437 86.5407 7.58443C86.5407 7.37186 86.5103 7.1441 86.4496 6.90115C86.3888 6.65821 86.2674 6.45322 86.0851 6.2862C85.9181 6.10399 85.66 6.01288 85.3108 6.01288C84.1568 6.01288 83.2533 6.53673 82.6004 7.58443C81.9627 8.61695 81.492 10.1581 81.1883 12.208Z" fill="#0DC7D6"/>
<path d="M99.365 21.865C98.287 21.865 97.4215 21.4854 96.7686 20.7262C96.1156 19.9518 95.7892 18.9193 95.7892 17.6287C95.7892 17.2187 95.8423 16.8012 95.9486 16.376C96.0701 15.9508 96.2143 15.5561 96.3814 15.1916C96.2903 15.055 96.2143 14.8804 96.1536 14.6678C96.108 14.44 96.0853 14.1743 96.0853 13.8706C96.0853 12.8837 96.2599 11.9802 96.6091 11.1603C96.9584 10.3252 97.4291 9.60391 98.0212 8.99655C98.6134 8.38919 99.2663 7.91848 99.98 7.58443C100.694 7.25038 101.415 7.08336 102.144 7.08336C103.389 7.08336 104.406 7.50092 105.196 8.33604C106 9.17117 106.403 10.4694 106.403 12.2308C106.403 13.1114 106.266 14.0073 105.993 14.9183C105.72 15.8294 105.348 16.7025 104.877 17.5376C104.421 18.3575 103.89 19.0939 103.283 19.7469C102.69 20.3998 102.053 20.916 101.369 21.2956C100.701 21.6752 100.033 21.865 99.365 21.865ZM99.0006 14.1667C99.0765 14.3337 99.1145 14.5311 99.1145 14.7589C99.1145 14.9867 99.0689 15.222 98.9778 15.465C98.8867 15.7079 98.7956 16.0344 98.7045 16.4443C98.6134 16.8391 98.5679 17.4085 98.5679 18.1525C98.5679 18.3499 98.5906 18.517 98.6362 18.6536C98.6969 18.7751 98.826 18.8358 99.0234 18.8358C99.5396 18.8358 100.026 18.6688 100.481 18.3347C100.952 18.0007 101.369 17.5604 101.734 17.0137C102.113 16.4671 102.432 15.8597 102.69 15.1916C102.964 14.5084 103.169 13.8175 103.305 13.119C103.457 12.4054 103.533 11.7449 103.533 11.1375C103.533 10.7427 103.457 10.4694 103.305 10.3176C103.153 10.1657 102.888 10.0898 102.508 10.0898C101.992 10.0898 101.46 10.2568 100.914 10.5909C100.382 10.9097 99.9344 11.3501 99.57 11.9119C99.2056 12.4585 99.0234 13.0811 99.0234 13.7795C99.0234 13.9162 99.0158 14.0452 99.0006 14.1667Z" fill="#0DC7D6"/>
<path d="M107.808 20.6579C107.444 20.6579 107.178 20.5364 107.011 20.2935C106.844 20.0354 106.776 19.7165 106.806 19.3369C106.821 19.1243 106.988 18.8206 107.307 18.4258C107.626 18.0159 108.044 17.5376 108.56 16.991C109.076 16.4291 109.645 15.8294 110.268 15.1916C110.906 14.5387 111.559 13.8782 112.227 13.2101C111.392 11.9802 110.761 10.9933 110.336 10.2492C109.926 9.50522 109.706 8.92063 109.676 8.49548C109.645 8.02477 109.721 7.64517 109.904 7.35667C110.101 7.06818 110.412 6.92393 110.837 6.92393C111.08 6.92393 111.331 7.03781 111.589 7.26557C111.862 7.49333 112.204 7.91089 112.614 8.51825C113.039 9.12562 113.601 9.98351 114.299 11.0919C115.347 10.0443 116.205 9.19394 116.873 8.54103C117.556 7.87293 118.103 7.35667 118.513 6.99226C118.938 6.62784 119.265 6.3773 119.492 6.24064C119.735 6.10399 119.94 6.03566 120.107 6.03566C120.472 6.03566 120.73 6.16472 120.882 6.42285C121.049 6.6658 121.117 6.98466 121.087 7.37945C121.056 7.69831 120.866 8.08551 120.517 8.54103C120.183 8.98137 119.75 9.46726 119.219 9.9987C118.688 10.515 118.111 11.054 117.488 11.6158C116.881 12.1624 116.288 12.7015 115.711 13.2329C116.653 14.5691 117.534 15.7383 118.354 16.7404C119.189 17.7274 119.864 18.5473 120.381 19.2002C120.897 19.838 121.163 20.3087 121.178 20.6124C121.208 20.9312 121.125 21.1818 120.927 21.364C120.745 21.5462 120.479 21.6373 120.13 21.6373C119.933 21.6373 119.69 21.5689 119.401 21.4323C119.113 21.2956 118.726 21.0147 118.24 20.5896C117.769 20.1644 117.162 19.5267 116.418 18.6764C115.689 17.8109 114.778 16.6493 113.684 15.1916C113.062 15.8294 112.439 16.4671 111.817 17.1048C111.209 17.7426 110.632 18.3347 110.086 18.8814C109.554 19.4128 109.084 19.8456 108.674 20.1796C108.279 20.4985 107.99 20.6579 107.808 20.6579Z" fill="#0DC7D6"/>
<path d="M19.2499 22.164C18.782 22.164 18.4271 22.0188 18.1851 21.7284C17.9593 21.438 17.8463 21.0428 17.8463 20.5426C17.8463 20.1393 17.8625 19.7924 17.8947 19.5021C17.927 19.2117 17.9915 18.9051 18.0883 18.5825C18.1851 18.2437 18.3061 17.8323 18.4513 17.3483C18.6126 16.8482 18.8143 16.2109 19.0563 15.4365C19.2015 14.9848 19.379 14.3959 19.5887 13.67C19.8146 12.9278 20.0404 12.1212 20.2663 11.25C20.4921 10.3627 20.6777 9.47536 20.8229 8.58804C20.9842 7.68459 21.0649 6.85373 21.0649 6.09548C21.0649 5.57922 20.9519 5.1033 20.7261 4.6677C19.2257 6.15195 17.806 8.08791 16.467 10.4756C15.144 12.8633 13.9663 15.6382 12.9338 18.8003C12.6273 19.5908 12.2724 20.1232 11.869 20.3974C11.4657 20.6556 11.0785 20.7846 10.7075 20.7846C10.5945 20.7846 10.4251 20.7201 10.1993 20.591C9.9734 20.4458 9.76367 20.1877 9.57007 19.8166C9.37647 19.4456 9.27968 18.9213 9.27968 18.2437C9.27968 18.0823 9.32001 17.8807 9.40067 17.6387C9.48134 17.3806 9.60234 17.1063 9.76367 16.8159C9.90886 15.977 10.0137 15.0816 10.0783 14.1297C10.1589 13.1618 10.2073 12.2018 10.2235 11.25C10.2557 10.282 10.2719 9.37856 10.2719 8.53964C10.2719 7.89432 10.2235 7.32966 10.1267 6.84567C9.33614 7.84592 8.58595 9.0559 7.8761 10.4756C7.16624 11.8953 6.52092 13.4038 5.94013 15.0009C5.37548 16.5981 4.90762 18.163 4.53656 19.6956C4.43976 20.0667 4.32683 20.4136 4.19776 20.7362C4.0687 21.0428 3.8751 21.2928 3.61697 21.4864C3.37498 21.6639 3.02005 21.7526 2.55219 21.7526C2.03593 21.7526 1.64874 21.5429 1.39061 21.1234C1.13248 20.704 1.00342 20.1474 1.00342 19.4536C1.00342 18.9213 1.11635 18.2356 1.34221 17.3967C1.56807 16.5416 1.8746 15.614 2.2618 14.6137C2.64899 13.5974 3.09265 12.5648 3.59277 11.5162C4.10903 10.4514 4.64949 9.42696 5.21415 8.44284C5.7788 7.45872 6.35153 6.57947 6.93232 5.80508C7.52924 5.01456 8.0939 4.39344 8.62629 3.94172C9.17481 3.47386 9.67494 3.23993 10.1267 3.23993C10.1428 3.23993 10.167 3.23993 10.1993 3.23993C10.5542 3.23993 10.8768 3.2722 11.1672 3.33673C11.4738 3.38513 11.74 3.55452 11.9658 3.84492C12.2078 4.11918 12.4176 4.57897 12.595 5.22429C12.7725 5.86962 12.9257 6.78114 13.0548 7.95885C13.0871 8.24924 13.1113 8.5961 13.1274 8.99943C13.1435 9.38662 13.1516 9.78995 13.1516 10.2094C13.684 9.01556 14.2648 7.89432 14.894 6.84567C15.5393 5.79702 16.2008 4.86937 16.8783 4.06271C17.5721 3.25606 18.2577 2.62687 18.9353 2.17515C19.6129 1.72342 20.2421 1.49756 20.8229 1.49756C21.5005 1.49756 22.1297 1.66696 22.7104 2.00575C23.2912 2.32841 23.7591 2.87694 24.114 3.65132C24.4689 4.42571 24.6464 5.48242 24.6464 6.82147C24.6464 8.24118 24.5173 9.62055 24.2592 10.9596C24.0011 12.2825 23.6784 13.5328 23.2912 14.7105C22.904 15.8882 22.5168 16.9692 22.1297 17.9533C21.7425 18.9213 21.4198 19.7602 21.1617 20.47C20.9519 20.9702 20.7099 21.3816 20.4357 21.7042C20.1614 22.0107 19.7662 22.164 19.2499 22.164Z" fill="#0DC7D6"/>
</svg>
